<svg width="998" height="165" viewBox="0 0 998 165" fill="none" xmlns="http://www.w3.org/2000/svg">
    <path d="M15.36 140.668C14.3147 140.006 13.2267 139.516 12.096 139.196C10.9867 138.854 9.96267 138.684 9.024 138.684C7.72267 138.684 6.67733 138.94 5.888 139.452C5.12 139.942 4.73601 140.625 4.73601 141.5C4.73601 142.289 4.97067 142.94 5.44 143.452C5.90934 143.942 6.48533 144.337 7.168 144.636C7.85067 144.913 8.80001 145.244 10.016 145.628C11.5307 146.097 12.7573 146.545 13.696 146.972C14.6347 147.398 15.4347 148.038 16.096 148.892C16.7573 149.724 17.088 150.833 17.088 152.22C17.088 153.5 16.736 154.62 16.032 155.58C15.3493 156.54 14.3787 157.286 13.12 157.82C11.8827 158.332 10.4533 158.588 8.832 158.588C7.18933 158.588 5.58935 158.268 4.03201 157.628C2.47468 156.988 1.13067 156.134 0 155.068L1.37601 152.412C2.44267 153.457 3.63734 154.268 4.96001 154.844C6.30401 155.398 7.60535 155.676 8.86401 155.676C10.3573 155.676 11.5307 155.388 12.384 154.812C13.2587 154.214 13.696 153.414 13.696 152.412C13.696 151.622 13.4613 150.972 12.992 150.46C12.5227 149.948 11.9253 149.542 11.2 149.244C10.496 148.945 9.53601 148.614 8.32001 148.252C6.82667 147.804 5.61068 147.366 4.67201 146.94C3.73335 146.513 2.93334 145.884 2.272 145.052C1.632 144.22 1.31201 143.121 1.31201 141.756C1.31201 140.561 1.64267 139.505 2.304 138.588C2.96533 137.67 3.89335 136.966 5.08801 136.476C6.28268 135.985 7.66933 135.74 9.248 135.74C10.592 135.74 11.904 135.942 13.184 136.348C14.4853 136.732 15.6373 137.254 16.64 137.916L15.36 140.668Z"
          fill="white"/>
    <path d="M28.7116 141.372C30.3969 141.372 31.8902 141.735 33.1916 142.46C34.5142 143.185 35.5382 144.199 36.2636 145.5C37.0102 146.78 37.3836 148.252 37.3836 149.916C37.3836 151.58 37.0102 153.063 36.2636 154.364C35.5382 155.665 34.5142 156.679 33.1916 157.404C31.8902 158.129 30.3969 158.492 28.7116 158.492C27.0049 158.492 25.4902 158.129 24.1676 157.404C22.8662 156.679 21.8422 155.676 21.0956 154.396C20.3702 153.095 20.0076 151.601 20.0076 149.916C20.0076 148.252 20.3702 146.78 21.0956 145.5C21.8422 144.199 22.8662 143.185 24.1676 142.46C25.4902 141.735 27.0049 141.372 28.7116 141.372ZM28.7116 143.964C27.6022 143.964 26.6102 144.22 25.7356 144.732C24.8822 145.244 24.2102 145.959 23.7196 146.876C23.2502 147.772 23.0156 148.796 23.0156 149.948C23.0156 151.121 23.2502 152.167 23.7196 153.084C24.2102 154.001 24.8822 154.716 25.7356 155.228C26.6102 155.719 27.6022 155.964 28.7116 155.964C29.7996 155.964 30.7702 155.719 31.6236 155.228C32.4982 154.716 33.1702 154.001 33.6396 153.084C34.1302 152.167 34.3756 151.121 34.3756 149.948C34.3756 148.796 34.1302 147.772 33.6396 146.876C33.1702 145.959 32.4982 145.244 31.6236 144.732C30.7702 144.22 29.7996 143.964 28.7116 143.964Z"
          fill="white"/>
    <path d="M53.4186 145.98C52.0746 144.679 50.4639 144.028 48.5866 144.028C47.4772 144.028 46.4853 144.273 45.6106 144.764C44.7573 145.255 44.0852 145.948 43.5946 146.844C43.1039 147.74 42.8586 148.775 42.8586 149.948C42.8586 151.121 43.0933 152.156 43.5626 153.052C44.0533 153.948 44.7146 154.652 45.5466 155.164C46.3999 155.655 47.3706 155.9 48.4586 155.9C49.5466 155.9 50.5279 155.719 51.4026 155.356C52.2773 154.993 53.0026 154.471 53.5786 153.788L55.2746 155.516C54.5066 156.476 53.5253 157.212 52.3306 157.724C51.1573 158.236 49.8239 158.492 48.3306 158.492C46.6879 158.492 45.2266 158.129 43.9466 157.404C42.6666 156.679 41.6639 155.676 40.9386 154.396C40.2346 153.095 39.8826 151.612 39.8826 149.948C39.8826 148.284 40.2346 146.801 40.9386 145.5C41.6639 144.199 42.6666 143.185 43.9466 142.46C45.2266 141.735 46.6879 141.372 48.3306 141.372C49.7599 141.372 51.0399 141.596 52.1706 142.044C53.3226 142.471 54.2826 143.1 55.0506 143.932L53.4186 145.98Z"
          fill="white"/>
    <path d="M59.5466 141.468H62.5226V158.396H59.5466V141.468ZM61.0186 134.716C61.5519 134.716 61.9893 134.897 62.3306 135.26C62.6933 135.622 62.8746 136.081 62.8746 136.636C62.8746 137.19 62.6933 137.649 62.3306 138.012C61.9893 138.374 61.5519 138.556 61.0186 138.556C60.4853 138.556 60.0373 138.374 59.6746 138.012C59.3333 137.649 59.1626 137.19 59.1626 136.636C59.1626 136.081 59.3333 135.622 59.6746 135.26C60.0373 134.897 60.4853 134.716 61.0186 134.716Z"
          fill="white"/>
    <path d="M78.6324 158.396V156.028C77.3738 157.692 75.4005 158.524 72.7125 158.524C71.5391 158.524 70.5045 158.3 69.6085 157.852C68.7338 157.404 68.0511 156.785 67.5605 155.996C67.0911 155.207 66.8564 154.321 66.8564 153.34C66.8564 151.825 67.4111 150.631 68.5204 149.756C69.6511 148.86 71.2191 148.401 73.2245 148.38H78.6005V147.58C78.6005 146.385 78.2271 145.468 77.4805 144.828C76.7551 144.167 75.6885 143.836 74.2805 143.836C72.5738 143.836 70.8351 144.444 69.0645 145.66L67.8165 143.612C69.0325 142.823 70.1525 142.257 71.1765 141.916C72.2218 141.553 73.4591 141.372 74.8885 141.372C77.0005 141.372 78.6325 141.895 79.7845 142.94C80.9365 143.964 81.5231 145.404 81.5445 147.26L81.5764 158.396H78.6324ZM73.3205 156.06C74.7071 156.06 75.8805 155.729 76.8405 155.068C77.8218 154.385 78.4085 153.489 78.6005 152.38V150.684H73.6405C72.2965 150.684 71.2938 150.887 70.6324 151.292C69.9924 151.697 69.6725 152.337 69.6725 153.212C69.6725 154.087 70.0031 154.78 70.6645 155.292C71.3258 155.804 72.2111 156.06 73.3205 156.06V156.06Z"
          fill="white"/>
    <path d="M87.019 134.652H89.9951V158.396H87.019V134.652Z" fill="white"/>
    <path d="M120.583 135.996H123.623V158.396H120.519L107.719 141.052V158.396H104.647V135.996H107.751L120.583 153.372V135.996Z"
          fill="white"/>
    <path d="M136.581 141.372C139.205 141.372 141.189 142.151 142.533 143.708C143.877 145.244 144.549 147.388 144.549 150.14C144.549 150.567 144.538 150.887 144.517 151.1H131.141C131.375 152.615 132.005 153.82 133.029 154.716C134.074 155.612 135.354 156.06 136.869 156.06C137.871 156.06 138.799 155.879 139.653 155.516C140.527 155.153 141.285 154.641 141.925 153.98L143.557 155.676C142.725 156.572 141.722 157.265 140.549 157.756C139.375 158.247 138.074 158.492 136.645 158.492C134.981 158.492 133.498 158.14 132.197 157.436C130.917 156.711 129.914 155.697 129.189 154.396C128.485 153.095 128.133 151.612 128.133 149.948C128.133 148.284 128.485 146.812 129.189 145.532C129.914 144.231 130.917 143.217 132.197 142.492C133.477 141.745 134.938 141.372 136.581 141.372V141.372ZM141.861 148.796C141.775 147.26 141.263 146.055 140.325 145.18C139.386 144.284 138.149 143.836 136.613 143.836C135.119 143.836 133.871 144.284 132.869 145.18C131.887 146.076 131.301 147.281 131.109 148.796H141.861Z"
          fill="white"/>
    <path d="M157.697 157.276C156.396 158.108 155.073 158.524 153.729 158.524C152.385 158.524 151.297 158.129 150.465 157.34C149.633 156.529 149.217 155.313 149.217 153.692V144.316H146.817V142.044H149.217V137.5H152.225V142.044H157.409V144.316H152.225V153.148C152.225 154.087 152.396 154.759 152.737 155.164C153.078 155.569 153.59 155.772 154.273 155.772C155.084 155.772 155.958 155.505 156.897 154.972L157.697 157.276Z"
          fill="white"/>
    <path d="M158.48 141.468H161.584L166.32 155.452L170.992 141.468H174.096L178.8 155.452L183.472 141.468H186.544L180.304 158.396H177.2L172.528 145.084L167.856 158.396H164.752L158.48 141.468Z"
          fill="white"/>
    <path d="M195.837 141.372C197.522 141.372 199.015 141.735 200.317 142.46C201.639 143.185 202.663 144.199 203.389 145.5C204.135 146.78 204.509 148.252 204.509 149.916C204.509 151.58 204.135 153.063 203.389 154.364C202.663 155.665 201.639 156.679 200.317 157.404C199.015 158.129 197.522 158.492 195.837 158.492C194.13 158.492 192.615 158.129 191.293 157.404C189.991 156.679 188.967 155.676 188.221 154.396C187.495 153.095 187.133 151.601 187.133 149.916C187.133 148.252 187.495 146.78 188.221 145.5C188.967 144.199 189.991 143.185 191.293 142.46C192.615 141.735 194.13 141.372 195.837 141.372ZM195.837 143.964C194.727 143.964 193.735 144.22 192.861 144.732C192.007 145.244 191.335 145.959 190.845 146.876C190.375 147.772 190.141 148.796 190.141 149.948C190.141 151.121 190.375 152.167 190.845 153.084C191.335 154.001 192.007 154.716 192.861 155.228C193.735 155.719 194.727 155.964 195.837 155.964C196.925 155.964 197.895 155.719 198.749 155.228C199.623 154.716 200.295 154.001 200.765 153.084C201.255 152.167 201.501 151.121 201.501 149.948C201.501 148.796 201.255 147.772 200.765 146.876C200.295 145.959 199.623 145.244 198.749 144.732C197.895 144.22 196.925 143.964 195.837 143.964Z"
          fill="white"/>
    <path d="M211.647 145.116C212.202 143.9 212.991 142.983 214.015 142.364C215.039 141.724 216.255 141.393 217.663 141.372V144.252C215.935 144.188 214.538 144.636 213.471 145.596C212.405 146.556 211.797 147.847 211.647 149.468V158.396H208.671V141.468H211.647V145.116Z"
          fill="white"/>
    <path d="M232.762 158.396L227.354 150.172L224.058 153.596V158.396H221.082V134.652H224.058V149.788L232.25 141.468H235.738L229.434 148.028L236.346 158.396H232.762Z"
          fill="white"/>
    <path d="M254.962 141.372C256.647 141.372 258.14 141.735 259.442 142.46C260.764 143.185 261.788 144.199 262.514 145.5C263.26 146.78 263.634 148.252 263.634 149.916C263.634 151.58 263.26 153.063 262.514 154.364C261.788 155.665 260.764 156.679 259.442 157.404C258.14 158.129 256.647 158.492 254.962 158.492C253.255 158.492 251.74 158.129 250.418 157.404C249.116 156.679 248.092 155.676 247.346 154.396C246.62 153.095 246.258 151.601 246.258 149.916C246.258 148.252 246.62 146.78 247.346 145.5C248.092 144.199 249.116 143.185 250.418 142.46C251.74 141.735 253.255 141.372 254.962 141.372ZM254.962 143.964C253.852 143.964 252.86 144.22 251.986 144.732C251.132 145.244 250.46 145.959 249.97 146.876C249.5 147.772 249.266 148.796 249.266 149.948C249.266 151.121 249.5 152.167 249.97 153.084C250.46 154.001 251.132 154.716 251.986 155.228C252.86 155.719 253.852 155.964 254.962 155.964C256.05 155.964 257.02 155.719 257.874 155.228C258.748 154.716 259.42 154.001 259.89 153.084C260.38 152.167 260.626 151.121 260.626 149.948C260.626 148.796 260.38 147.772 259.89 146.876C259.42 145.959 258.748 145.244 257.874 144.732C257.02 144.22 256.05 143.964 254.962 143.964Z"
          fill="white"/>
    <path d="M273.912 137.116C273.144 137.116 272.504 137.351 271.992 137.82C271.48 138.289 271.224 138.961 271.224 139.836V142.044H275.896V144.316H271.224V158.396H268.248V144.316H266.04V142.044H268.248V140.22C268.248 138.983 268.504 137.937 269.016 137.084C269.549 136.209 270.242 135.559 271.096 135.132C271.949 134.684 272.866 134.46 273.848 134.46C274.786 134.46 275.768 134.716 276.792 135.228L276.088 137.66C275.32 137.297 274.594 137.116 273.912 137.116V137.116Z"
          fill="white"/>
    <path d="M301.736 158.396L297.288 151.356C296.776 151.399 296.36 151.42 296.04 151.42H290.344V158.396H287.272V135.996H296.04C298.877 135.996 301.064 136.657 302.6 137.98C304.157 139.281 304.936 141.137 304.936 143.548C304.936 145.361 304.509 146.887 303.656 148.124C302.824 149.361 301.619 150.257 300.04 150.812L305.256 158.396H301.736ZM296.04 148.636C297.96 148.636 299.432 148.22 300.456 147.388C301.48 146.535 301.992 145.287 301.992 143.644C301.992 142.044 301.48 140.839 300.456 140.028C299.432 139.196 297.96 138.78 296.04 138.78H290.344V148.636H296.04Z"
          fill="white"/>
    <path d="M316.893 141.372C319.517 141.372 321.501 142.151 322.845 143.708C324.189 145.244 324.861 147.388 324.861 150.14C324.861 150.567 324.85 150.887 324.829 151.1H311.453C311.688 152.615 312.317 153.82 313.341 154.716C314.386 155.612 315.666 156.06 317.181 156.06C318.184 156.06 319.112 155.879 319.965 155.516C320.84 155.153 321.597 154.641 322.237 153.98L323.869 155.676C323.037 156.572 322.034 157.265 320.861 157.756C319.688 158.247 318.386 158.492 316.957 158.492C315.293 158.492 313.81 158.14 312.509 157.436C311.229 156.711 310.226 155.697 309.501 154.396C308.797 153.095 308.445 151.612 308.445 149.948C308.445 148.284 308.797 146.812 309.501 145.532C310.226 144.231 311.229 143.217 312.509 142.492C313.789 141.745 315.25 141.372 316.893 141.372ZM322.173 148.796C322.088 147.26 321.576 146.055 320.637 145.18C319.698 144.284 318.461 143.836 316.925 143.836C315.432 143.836 314.184 144.284 313.181 145.18C312.2 146.076 311.613 147.281 311.421 148.796H322.173Z"
          fill="white"/>
    <path d="M339.257 158.396V156.028C337.999 157.692 336.025 158.524 333.337 158.524C332.164 158.524 331.129 158.3 330.233 157.852C329.359 157.404 328.676 156.785 328.185 155.996C327.716 155.207 327.481 154.321 327.481 153.34C327.481 151.825 328.036 150.631 329.145 149.756C330.276 148.86 331.844 148.401 333.849 148.38H339.225V147.58C339.225 146.385 338.852 145.468 338.105 144.828C337.38 144.167 336.313 143.836 334.905 143.836C333.199 143.836 331.46 144.444 329.689 145.66L328.441 143.612C329.657 142.823 330.777 142.257 331.801 141.916C332.847 141.553 334.084 141.372 335.513 141.372C337.625 141.372 339.257 141.895 340.409 142.94C341.561 143.964 342.148 145.404 342.169 147.26L342.201 158.396H339.257ZM333.945 156.06C335.332 156.06 336.505 155.729 337.465 155.068C338.447 154.385 339.033 153.489 339.225 152.38V150.684H334.265C332.921 150.684 331.919 150.887 331.257 151.292C330.617 151.697 330.297 152.337 330.297 153.212C330.297 154.087 330.628 154.78 331.289 155.292C331.951 155.804 332.836 156.06 333.945 156.06V156.06Z"
          fill="white"/>
    <path d="M359.356 145.98C358.012 144.679 356.401 144.028 354.524 144.028C353.415 144.028 352.423 144.273 351.548 144.764C350.695 145.255 350.023 145.948 349.532 146.844C349.041 147.74 348.796 148.775 348.796 149.948C348.796 151.121 349.031 152.156 349.5 153.052C349.991 153.948 350.652 154.652 351.484 155.164C352.337 155.655 353.308 155.9 354.396 155.9C355.484 155.9 356.465 155.719 357.34 155.356C358.215 154.993 358.94 154.471 359.516 153.788L361.212 155.516C360.444 156.476 359.463 157.212 358.268 157.724C357.095 158.236 355.761 158.492 354.268 158.492C352.625 158.492 351.164 158.129 349.884 157.404C348.604 156.679 347.601 155.676 346.876 154.396C346.172 153.095 345.82 151.612 345.82 149.948C345.82 148.284 346.172 146.801 346.876 145.5C347.601 144.199 348.604 143.185 349.884 142.46C351.164 141.735 352.625 141.372 354.268 141.372C355.697 141.372 356.977 141.596 358.108 142.044C359.26 142.471 360.22 143.1 360.988 143.932L359.356 145.98Z"
          fill="white"/>
    <path d="M374.572 157.276C373.271 158.108 371.948 158.524 370.604 158.524C369.26 158.524 368.172 158.129 367.34 157.34C366.508 156.529 366.092 155.313 366.092 153.692V144.316H363.692V142.044H366.092V137.5H369.1V142.044H374.284V144.316H369.1V153.148C369.1 154.087 369.271 154.759 369.612 155.164C369.953 155.569 370.465 155.772 371.148 155.772C371.959 155.772 372.833 155.505 373.772 154.972L374.572 157.276Z"
          fill="white"/>
    <path d="M377.275 147.612H384.923V149.756H377.275V147.612Z" fill="white"/>
    <path d="M405.635 134.652V158.396H402.659V155.036C402.019 156.167 401.155 157.041 400.067 157.66C399 158.257 397.752 158.556 396.323 158.556C394.723 158.556 393.304 158.193 392.067 157.468C390.851 156.721 389.902 155.697 389.219 154.396C388.536 153.073 388.195 151.569 388.195 149.884C388.195 148.22 388.536 146.748 389.219 145.468C389.902 144.167 390.851 143.153 392.067 142.428C393.304 141.703 394.712 141.34 396.291 141.34C397.742 141.34 399.011 141.639 400.099 142.236C401.187 142.833 402.04 143.697 402.659 144.828V134.652H405.635ZM396.931 155.996C398.04 155.996 399.022 155.74 399.875 155.228C400.75 154.716 401.432 154.001 401.923 153.084C402.414 152.167 402.659 151.132 402.659 149.98C402.659 148.807 402.414 147.761 401.923 146.844C401.432 145.927 400.75 145.212 399.875 144.7C399.022 144.188 398.04 143.932 396.931 143.932C395.822 143.932 394.83 144.199 393.955 144.732C393.102 145.244 392.43 145.959 391.939 146.876C391.448 147.793 391.203 148.828 391.203 149.98C391.203 151.132 391.448 152.167 391.939 153.084C392.43 154.001 393.102 154.716 393.955 155.228C394.83 155.74 395.822 155.996 396.931 155.996V155.996Z"
          fill="white"/>
    <path d="M418.393 141.372C421.017 141.372 423.001 142.151 424.345 143.708C425.689 145.244 426.361 147.388 426.361 150.14C426.361 150.567 426.35 150.887 426.329 151.1H412.953C413.188 152.615 413.817 153.82 414.841 154.716C415.886 155.612 417.166 156.06 418.681 156.06C419.684 156.06 420.612 155.879 421.465 155.516C422.34 155.153 423.097 154.641 423.737 153.98L425.369 155.676C424.537 156.572 423.534 157.265 422.361 157.756C421.188 158.247 419.886 158.492 418.457 158.492C416.793 158.492 415.31 158.14 414.009 157.436C412.729 156.711 411.726 155.697 411.001 154.396C410.297 153.095 409.945 151.612 409.945 149.948C409.945 148.284 410.297 146.812 411.001 145.532C411.726 144.231 412.729 143.217 414.009 142.492C415.289 141.745 416.75 141.372 418.393 141.372ZM423.673 148.796C423.588 147.26 423.076 146.055 422.137 145.18C421.198 144.284 419.961 143.836 418.425 143.836C416.932 143.836 415.684 144.284 414.681 145.18C413.7 146.076 413.113 147.281 412.921 148.796H423.673Z"
          fill="white"/>
    <path d="M427.043 141.468H430.211L435.299 155.452L440.355 141.468H443.363L436.771 158.396H433.667L427.043 141.468Z"
          fill="white"/>
    <path d="M452.393 141.372C455.017 141.372 457.001 142.151 458.345 143.708C459.689 145.244 460.361 147.388 460.361 150.14C460.361 150.567 460.35 150.887 460.329 151.1H446.953C447.188 152.615 447.817 153.82 448.841 154.716C449.886 155.612 451.166 156.06 452.681 156.06C453.684 156.06 454.612 155.879 455.465 155.516C456.34 155.153 457.097 154.641 457.737 153.98L459.369 155.676C458.537 156.572 457.534 157.265 456.361 157.756C455.188 158.247 453.886 158.492 452.457 158.492C450.793 158.492 449.31 158.14 448.009 157.436C446.729 156.711 445.726 155.697 445.001 154.396C444.297 153.095 443.945 151.612 443.945 149.948C443.945 148.284 444.297 146.812 445.001 145.532C445.726 144.231 446.729 143.217 448.009 142.492C449.289 141.745 450.75 141.372 452.393 141.372ZM457.673 148.796C457.588 147.26 457.076 146.055 456.137 145.18C455.198 144.284 453.961 143.836 452.425 143.836C450.932 143.836 449.684 144.284 448.681 145.18C447.7 146.076 447.113 147.281 446.921 148.796H457.673Z"
          fill="white"/>
    <path d="M464.582 134.652H467.557V158.396H464.582V134.652Z" fill="white"/>
    <path d="M480.587 141.372C482.272 141.372 483.765 141.735 485.067 142.46C486.389 143.185 487.413 144.199 488.139 145.5C488.885 146.78 489.259 148.252 489.259 149.916C489.259 151.58 488.885 153.063 488.139 154.364C487.413 155.665 486.389 156.679 485.067 157.404C483.765 158.129 482.272 158.492 480.587 158.492C478.88 158.492 477.365 158.129 476.043 157.404C474.741 156.679 473.717 155.676 472.971 154.396C472.245 153.095 471.883 151.601 471.883 149.916C471.883 148.252 472.245 146.78 472.971 145.5C473.717 144.199 474.741 143.185 476.043 142.46C477.365 141.735 478.88 141.372 480.587 141.372ZM480.587 143.964C479.477 143.964 478.485 144.22 477.611 144.732C476.757 145.244 476.085 145.959 475.595 146.876C475.125 147.772 474.891 148.796 474.891 149.948C474.891 151.121 475.125 152.167 475.595 153.084C476.085 154.001 476.757 154.716 477.611 155.228C478.485 155.719 479.477 155.964 480.587 155.964C481.675 155.964 482.645 155.719 483.499 155.228C484.373 154.716 485.045 154.001 485.515 153.084C486.005 152.167 486.251 151.121 486.251 149.948C486.251 148.796 486.005 147.772 485.515 146.876C485.045 145.959 484.373 145.244 483.499 144.732C482.645 144.22 481.675 143.964 480.587 143.964Z"
          fill="white"/>
    <path d="M502.83 141.372C504.408 141.372 505.816 141.735 507.054 142.46C508.291 143.185 509.251 144.199 509.934 145.5C510.616 146.801 510.958 148.295 510.958 149.98C510.958 151.644 510.616 153.127 509.934 154.428C509.272 155.708 508.323 156.711 507.086 157.436C505.87 158.14 504.472 158.492 502.893 158.492C501.464 158.492 500.205 158.193 499.117 157.596C498.029 156.999 497.176 156.145 496.557 155.036V164.604H493.582V141.468H496.557V144.828C497.176 143.719 498.019 142.865 499.086 142.268C500.174 141.671 501.422 141.372 502.83 141.372V141.372ZM502.254 155.9C503.342 155.9 504.312 155.644 505.166 155.132C506.04 154.62 506.712 153.905 507.182 152.988C507.672 152.071 507.918 151.036 507.918 149.884C507.918 148.753 507.672 147.729 507.182 146.812C506.691 145.895 506.019 145.18 505.166 144.668C504.312 144.156 503.342 143.9 502.254 143.9C501.166 143.9 500.184 144.156 499.31 144.668C498.456 145.18 497.784 145.895 497.294 146.812C496.803 147.729 496.557 148.753 496.557 149.884C496.557 151.057 496.803 152.103 497.294 153.02C497.784 153.916 498.456 154.62 499.31 155.132C500.184 155.644 501.166 155.9 502.254 155.9Z"
          fill="white"/>
    <path d="M521.893 141.372C524.517 141.372 526.501 142.151 527.845 143.708C529.189 145.244 529.861 147.388 529.861 150.14C529.861 150.567 529.85 150.887 529.829 151.1H516.453C516.688 152.615 517.317 153.82 518.341 154.716C519.386 155.612 520.666 156.06 522.181 156.06C523.184 156.06 524.112 155.879 524.965 155.516C525.84 155.153 526.597 154.641 527.237 153.98L528.869 155.676C528.037 156.572 527.034 157.265 525.861 157.756C524.688 158.247 523.386 158.492 521.957 158.492C520.293 158.492 518.81 158.14 517.509 157.436C516.229 156.711 515.226 155.697 514.501 154.396C513.797 153.095 513.445 151.612 513.445 149.948C513.445 148.284 513.797 146.812 514.501 145.532C515.226 144.231 516.229 143.217 517.509 142.492C518.789 141.745 520.25 141.372 521.893 141.372ZM527.173 148.796C527.088 147.26 526.576 146.055 525.637 145.18C524.698 144.284 523.461 143.836 521.925 143.836C520.432 143.836 519.184 144.284 518.181 145.18C517.2 146.076 516.613 147.281 516.421 148.796H527.173Z"
          fill="white"/>
    <path d="M536.897 145.116C537.452 143.9 538.241 142.983 539.265 142.364C540.289 141.724 541.505 141.393 542.913 141.372V144.252C541.185 144.188 539.788 144.636 538.721 145.596C537.655 146.556 537.047 147.847 536.897 149.468V158.396H533.921V141.468H536.897V145.116Z"
          fill="white"/>
    <path d="M555.42 145.212C554.716 144.785 553.937 144.444 553.084 144.188C552.252 143.932 551.452 143.804 550.684 143.804C549.788 143.804 549.062 143.975 548.508 144.316C547.974 144.636 547.708 145.137 547.708 145.82C547.708 146.503 548.006 147.025 548.604 147.388C549.222 147.729 550.15 148.081 551.388 148.444C552.561 148.785 553.521 149.127 554.268 149.468C555.014 149.809 555.644 150.311 556.156 150.972C556.689 151.633 556.956 152.508 556.956 153.596C556.956 155.196 556.348 156.412 555.132 157.244C553.937 158.076 552.444 158.492 550.652 158.492C549.393 158.492 548.166 158.289 546.972 157.884C545.798 157.479 544.806 156.903 543.996 156.156L545.116 153.98C545.82 154.62 546.684 155.132 547.708 155.516C548.753 155.9 549.766 156.092 550.748 156.092C551.729 156.092 552.518 155.911 553.116 155.548C553.713 155.185 554.012 154.631 554.012 153.884C554.012 153.116 553.692 152.54 553.052 152.156C552.433 151.772 551.484 151.388 550.204 151.004C549.073 150.684 548.145 150.364 547.42 150.044C546.716 149.703 546.108 149.212 545.596 148.572C545.105 147.932 544.86 147.1 544.86 146.076C544.86 144.497 545.436 143.313 546.588 142.524C547.74 141.735 549.18 141.34 550.908 141.34C551.932 141.34 552.934 141.489 553.916 141.788C554.918 142.065 555.782 142.449 556.508 142.94L555.42 145.212Z"
          fill="white"/>
    <path d="M33.696 114.192C48.24 114.192 60.048 102.384 60.048 87.84C60.048 73.2961 48.24 61.488 33.696 61.488H27.648C25.488 61.488 23.9041 59.76 23.9041 57.744C23.9041 55.584 25.488 53.856 27.648 53.856H57.744V31.248H27.648C13.104 31.248 1.29602 43.2 1.29602 57.744C1.29602 72.288 13.104 84.096 27.648 84.096H33.696C35.712 84.096 37.44 85.824 37.44 87.84C37.44 90 35.712 91.584 33.696 91.584H0V114.192H33.696Z"
          fill="white"/>
    <path d="M159.776 32.2559L159.92 36.8639C154.16 33.9839 147.824 32.3999 141.344 32.3999C135.872 32.3999 130.4 33.4079 125.36 35.5679C120.464 37.7279 116.144 40.6079 112.256 44.3519C108.512 48.0959 105.632 52.5599 103.472 57.4559C101.456 62.4959 100.304 67.9679 100.304 73.4399C100.304 78.9119 101.456 84.3839 103.472 89.4239C105.632 94.3199 108.512 98.6399 112.256 102.528C116.144 106.272 120.464 109.152 125.36 111.312C130.4 113.328 135.872 114.48 141.344 114.48C147.824 114.48 154.16 112.896 159.92 110.016L159.776 113.328H181.376V32.2559H159.776ZM151.136 90.1439C148.256 91.8719 144.8 92.8799 141.344 92.8799C130.688 92.8799 121.904 84.0959 121.904 73.4399C121.904 62.7839 130.688 53.9999 141.344 53.9999C145.088 53.9999 148.832 55.0079 151.856 57.1679C155.024 59.0399 157.472 61.9199 158.912 65.2319C160.208 67.8239 160.784 70.5599 160.784 73.4399C160.784 76.8959 159.92 80.2079 158.192 83.2319C156.464 86.1119 154.16 88.5599 151.136 90.1439V90.1439Z"
          fill="white"/>
    <path d="M338.811 43.6319C332.331 37.1519 323.547 33.5519 314.331 33.5519C305.403 33.5519 296.907 36.8639 290.571 43.0559C284.091 36.8639 275.595 33.5519 266.667 33.5519C262.203 33.5519 257.739 34.4159 253.707 36.1439V32.2559H232.107V113.328H253.707V68.1119C253.707 61.0559 259.467 55.1519 266.667 55.1519C273.867 55.1519 279.771 61.0559 279.771 68.1119V113.328H301.371V68.1119C301.371 61.0559 307.131 55.1519 314.331 55.1519C321.531 55.1519 327.435 61.0559 327.435 68.1119V113.328H349.035V68.1119C349.035 58.8959 345.435 50.2559 338.811 43.6319V43.6319Z"
          fill="white"/>
    <path d="M433.497 114.336C443.145 114.336 452.217 110.592 458.985 103.824C465.753 97.0561 469.497 87.9841 469.497 78.3361V33.1201H447.897V78.3361C447.897 86.2561 441.417 92.7361 433.497 92.7361C425.577 92.7361 419.097 86.2561 419.097 78.3361V33.1201H397.497V78.3361C397.497 87.9841 401.241 97.0561 408.009 103.824C414.777 110.592 423.849 114.336 433.497 114.336V114.336Z"
          fill="white"/>
    <path d="M541.969 113.328V77.904C541.969 64.08 553.201 52.704 567.169 52.704V31.104C560.833 31.104 554.641 32.4 548.881 34.848C543.409 37.152 538.369 40.608 534.049 44.928C529.729 49.104 526.417 54.144 523.969 59.76C521.521 65.52 520.369 71.568 520.369 77.904V113.328H541.969Z"
          fill="white"/>
    <path d="M663.745 32.2559L663.889 36.8639C658.129 33.9839 651.793 32.3999 645.313 32.3999C639.841 32.3999 634.369 33.4079 629.329 35.5679C624.433 37.7279 620.113 40.6079 616.225 44.3519C612.481 48.0959 609.601 52.5599 607.441 57.4559C605.425 62.4959 604.273 67.9679 604.273 73.4399C604.273 78.9119 605.425 84.3839 607.441 89.4239C609.601 94.3199 612.481 98.6399 616.225 102.528C620.113 106.272 624.433 109.152 629.329 111.312C634.369 113.328 639.841 114.48 645.313 114.48C651.793 114.48 658.129 112.896 663.889 110.016L663.745 113.328H685.345V32.2559H663.745ZM655.105 90.1439C652.225 91.8719 648.769 92.8799 645.313 92.8799C634.657 92.8799 625.873 84.0959 625.873 73.4399C625.873 62.7839 634.657 53.9999 645.313 53.9999C649.057 53.9999 652.801 55.0079 655.825 57.1679C658.993 59.0399 661.441 61.9199 662.881 65.2319C664.177 67.8239 664.753 70.5599 664.753 73.4399C664.753 76.8959 663.889 80.2079 662.161 83.2319C660.433 86.1119 658.129 88.5599 655.105 90.1439Z"
          fill="white"/>
    <path d="M736.795 113.328H758.539V30.2402L736.795 37.4402V113.328Z" fill="white"/>
    <path d="M833.84 114.192C842.912 114.192 851.552 110.592 858.032 104.112C864.512 97.6318 868.112 88.9918 868.112 79.7758V1.00781L845.504 8.20781V79.7758C845.504 86.2558 840.176 91.5838 833.84 91.5838C830.672 91.5838 827.648 90.2878 825.488 88.1278L809.504 104.112C815.984 110.592 824.624 114.192 833.84 114.192Z"
          fill="white"/>
    <path d="M958.251 114.192C968.475 114.192 977.979 111.312 985.035 105.84C988.923 102.816 991.947 99.216 994.107 95.04C996.411 90.72 997.563 85.68 997.563 80.352C997.563 70.56 994.107 63.072 987.195 57.312C981.291 52.56 973.515 49.536 965.307 46.224C964.443 45.936 963.579 45.504 962.571 45.216C956.811 42.912 951.339 40.896 947.883 38.448C945.435 36.72 943.851 34.992 943.995 31.68C943.995 24.336 951.195 21.6 957.243 21.6C963.723 21.6 971.499 25.056 978.555 30.816L982.587 34.128L996.411 16.272L992.667 13.104C982.011 4.608 969.771 0 957.243 0C947.451 0 938.379 3.312 931.611 9.072C924.699 15.12 920.955 23.328 920.955 32.112C920.955 37.296 921.963 41.904 924.123 45.936C925.995 49.68 928.731 52.848 932.331 55.872C938.667 60.768 946.587 63.936 954.651 66.96C955.227 67.248 955.803 67.392 956.235 67.536C962.139 69.84 967.323 71.712 970.491 74.16C973.227 76.176 974.379 78.336 974.379 81.792C974.379 85.104 973.083 87.552 970.635 89.424C967.755 91.44 963.435 92.448 958.395 92.448C954.075 92.448 949.467 91.44 945.435 89.568C940.971 87.408 937.083 84.384 934.059 80.64L930.171 75.744L915.339 93.6L918.363 96.768C928.875 108 942.987 114.192 958.251 114.192V114.192Z"
          fill="white"/>
</svg>
